<svg width="331" height="79" viewBox="0 0 331 79" fill="none" xmlns="http://www.w3.org/2000/svg">
<path d="M34.8924 38.4319V33.5893C36.6048 33.0825 37.8024 31.6104 37.6059 29.9372C37.4188 28.3203 35.9123 27.001 34.0316 26.8241C31.5894 26.5908 29.5122 28.2399 29.5122 30.2911C29.5122 31.8195 30.6537 33.1147 32.2444 33.5893V38.4319C32.2444 38.8824 31.814 39.2524 31.29 39.2524H18.9201C18.3961 39.2524 17.9657 39.6224 17.9657 40.0729C17.9657 40.5234 18.3961 40.8934 18.9201 40.8934H21.7366C22.2606 40.8934 22.691 41.2635 22.691 41.7139V46.2428C20.8477 46.7175 19.5564 48.2861 19.8371 50.0719C20.0804 51.6405 21.5681 52.8793 23.3927 53.0563C25.8349 53.2896 27.9122 51.6405 27.9122 49.5893C27.9122 48.1172 26.8455 46.8542 25.339 46.3394V41.7139C25.339 41.2635 25.7694 40.8934 26.2934 40.8934H37.2223V64.8652C37.2223 66.82 34.7614 68.0347 32.7965 67.0613L7.70114 54.6088C6.78416 54.1584 6.22274 53.3218 6.22274 52.4128V21.7964C6.22274 20.8874 6.78416 20.0508 7.70114 19.6003L25.1706 10.9287C26.3776 11.709 27.8934 12.1514 29.5403 12.079C32.8713 11.9342 35.6036 9.64159 35.8562 6.78589C36.1556 3.41535 33.0491 0.591827 29.1941 0.591827C25.5074 0.591827 22.5038 3.17403 22.5038 6.34345C22.5038 6.47216 22.5132 6.59282 22.5225 6.72153L2.13375 16.8412C1.21677 17.2917 0.655354 18.1283 0.655354 19.0373V55.18C0.655354 56.089 1.21677 56.9256 2.13375 57.3761L38.3732 75.363C40.3382 76.3363 42.7991 75.1216 42.7991 73.1669V39.2524H35.8468C35.3229 39.2524 34.8924 38.8824 34.8924 38.4319ZM26.4805 49.5812C26.4805 50.9085 25.1331 51.9784 23.5518 51.8255C22.3541 51.7129 21.381 50.8763 21.2406 49.8467C21.1096 48.8492 21.7366 47.9643 22.6816 47.5621C23.0372 47.4093 23.4302 47.3288 23.8512 47.3288C24.4033 47.3288 24.9179 47.4736 25.339 47.723C26.0314 48.1332 26.4805 48.809 26.4805 49.5812ZM32.2444 32.2378C31.421 31.8276 30.8877 31.0392 30.9438 30.1544C31.0187 29.0121 32.1134 28.087 33.4421 28.0307C34.9486 27.9664 36.1931 29.0041 36.1931 30.2831C36.1931 31.1116 35.6691 31.8356 34.8924 32.2298C34.4994 32.4229 34.0503 32.5355 33.5637 32.5355C33.0865 32.5435 32.6281 32.4309 32.2444 32.2378ZM29.1847 2.77986C31.5333 2.77986 33.4328 4.47719 33.3205 6.52043C33.2269 8.21776 31.7017 9.64963 29.7368 9.86683C29.0256 9.94727 28.3332 9.86683 27.725 9.66572C26.1624 9.15893 25.0489 7.85577 25.0489 6.33541C25.0489 6.0056 25.1051 5.68383 25.1986 5.37815C25.6852 3.88192 27.2852 2.77986 29.1847 2.77986Z" fill="#A6A9C4"/>
<path d="M83.5018 21.8688L47.2623 3.88191C45.2974 2.90856 42.8365 4.12324 42.8365 6.07799L42.8271 40.0729H48.3665H52.1373C52.6613 40.0729 53.0917 40.4429 53.0917 40.8934V45.4223C51.2484 45.8969 49.9571 47.4656 50.2379 49.2514C50.4811 50.82 51.9689 52.0588 53.7935 52.2358C56.2357 52.4691 58.3129 50.82 58.3129 48.7687C58.3129 47.2966 57.2462 46.0337 55.7397 45.5189V40.8934C55.7397 40.4429 56.1702 40.0729 56.6941 40.0729H66.678C67.202 40.0729 67.6324 39.7029 67.6324 39.2524C67.6324 38.8019 67.202 38.4319 66.678 38.4319H66.257C65.733 38.4319 65.3025 38.0619 65.3025 37.6114V32.7687C67.0149 32.262 68.2126 30.7899 68.0161 29.1167C67.8289 27.4998 66.3224 26.1805 64.4417 26.0035C61.9995 25.7703 59.9223 27.4193 59.9223 29.4706C59.9223 30.999 61.0638 32.2941 62.6545 32.7687V37.6114C62.6545 38.0619 62.2241 38.4319 61.7001 38.4319H48.4132V14.3796C48.4132 12.4249 50.8741 11.2102 52.8391 12.1836L77.9344 24.6441C78.8514 25.0945 79.4128 25.9312 79.4128 26.8401V57.4565C79.4128 58.3655 78.8514 59.2021 77.9344 59.6526L60.465 68.3162C59.1925 67.4957 57.5737 67.0533 55.8333 67.182C52.6052 67.4313 50.0226 69.6918 49.7794 72.4751C49.4893 75.8376 52.5958 78.6531 56.4509 78.6531C60.1375 78.6531 63.1411 76.0709 63.1411 72.9014C63.1411 72.7727 63.1317 72.6521 63.1224 72.5233L83.5112 62.4037C84.4282 61.9532 84.9896 61.1166 84.9896 60.2076V24.0649C84.9802 23.1639 84.4188 22.3273 83.5018 21.8688ZM61.3446 29.4706C61.3446 28.1916 62.589 27.1539 64.0955 27.2182C65.4242 27.2745 66.5096 28.1996 66.5938 29.3419C66.6499 30.2268 66.1166 31.0071 65.2932 31.4254C64.9002 31.6184 64.4511 31.731 63.9645 31.731C63.4779 31.731 63.0288 31.6184 62.6358 31.4254C61.8685 31.0232 61.3446 30.2992 61.3446 29.4706ZM56.8906 48.7607C56.8906 50.088 55.5432 51.1579 53.9619 51.005C52.7642 50.8924 51.7911 50.0558 51.6508 49.0261C51.5198 48.0287 52.1467 47.1438 53.0917 46.7416C53.4473 46.5887 53.8403 46.5083 54.2613 46.5083C54.8134 46.5083 55.328 46.6531 55.7491 46.9025C56.4322 47.3127 56.8906 47.9884 56.8906 48.7607ZM60.4369 73.8587C59.9036 75.4997 58.0322 76.6661 55.8988 76.4328C54.0274 76.2237 52.5397 74.9205 52.3338 73.3117C52.0531 71.1639 54.0087 69.3459 56.4415 69.3459C56.9561 69.3459 57.4521 69.4263 57.9106 69.5792C59.4732 70.0859 60.5866 71.3891 60.5866 72.9095C60.5866 73.2393 60.5305 73.553 60.4369 73.8587Z" fill="#BA8A0F"/>
<path d="M101.659 59H97.2273L110.045 24.0909H114.409L127.227 59H122.795L112.364 29.6136H112.091L101.659 59ZM103.295 45.3636H121.159V49.1136H103.295V45.3636ZM142.006 59.5455C139.824 59.5455 137.898 58.9943 136.227 57.892C134.557 56.7784 133.25 55.2102 132.307 53.1875C131.364 51.1534 130.892 48.75 130.892 45.9773C130.892 43.2273 131.364 40.8409 132.307 38.8182C133.25 36.7955 134.563 35.233 136.244 34.1307C137.926 33.0284 139.869 32.4773 142.074 32.4773C143.778 32.4773 145.125 32.7614 146.114 33.3295C147.114 33.8864 147.875 34.5227 148.398 35.2386C148.932 35.9432 149.347 36.5227 149.642 36.9773H149.983V24.0909H154.006V59H150.119V54.9773H149.642C149.347 55.4545 148.926 56.0568 148.381 56.7841C147.835 57.5 147.057 58.142 146.045 58.7102C145.034 59.267 143.688 59.5455 142.006 59.5455ZM142.551 55.9318C144.165 55.9318 145.528 55.5114 146.642 54.6705C147.756 53.8182 148.602 52.642 149.182 51.142C149.761 49.6307 150.051 47.8864 150.051 45.9091C150.051 43.9545 149.767 42.2443 149.199 40.7784C148.631 39.3011 147.79 38.1534 146.676 37.3352C145.563 36.5057 144.188 36.0909 142.551 36.0909C140.847 36.0909 139.426 36.5284 138.29 37.4034C137.165 38.267 136.318 39.4432 135.75 40.9318C135.193 42.4091 134.915 44.0682 134.915 45.9091C134.915 47.7727 135.199 49.4659 135.767 50.9886C136.347 52.5 137.199 53.7045 138.324 54.6023C139.46 55.4886 140.869 55.9318 142.551 55.9318ZM161.932 59V32.8182H165.955V59H161.932ZM163.977 28.4545C163.193 28.4545 162.517 28.1875 161.949 27.6534C161.392 27.1193 161.114 26.4773 161.114 25.7273C161.114 24.9773 161.392 24.3352 161.949 23.8011C162.517 23.267 163.193 23 163.977 23C164.761 23 165.432 23.267 165.989 23.8011C166.557 24.3352 166.841 24.9773 166.841 25.7273C166.841 26.4773 166.557 27.1193 165.989 27.6534C165.432 28.1875 164.761 28.4545 163.977 28.4545ZM177.345 24.0909V59H173.322V24.0909H177.345ZM203.259 38.6818L199.645 39.7045C199.418 39.1023 199.082 38.517 198.639 37.9489C198.207 37.3693 197.616 36.892 196.866 36.517C196.116 36.142 195.156 35.9545 193.986 35.9545C192.384 35.9545 191.048 36.3239 189.98 37.0625C188.923 37.7898 188.395 38.7159 188.395 39.8409C188.395 40.8409 188.759 41.6307 189.486 42.2102C190.213 42.7898 191.349 43.2727 192.895 43.6591L196.781 44.6136C199.122 45.1818 200.866 46.0511 202.014 47.2216C203.162 48.3807 203.736 49.875 203.736 51.7045C203.736 53.2045 203.304 54.5455 202.44 55.7273C201.588 56.9091 200.395 57.8409 198.861 58.5227C197.327 59.2045 195.543 59.5455 193.509 59.5455C190.838 59.5455 188.628 58.9659 186.878 57.8068C185.128 56.6477 184.02 54.9545 183.554 52.7273L187.372 51.7727C187.736 53.1818 188.423 54.2386 189.435 54.9432C190.457 55.6477 191.793 56 193.44 56C195.315 56 196.804 55.6023 197.906 54.8068C199.02 54 199.577 53.0341 199.577 51.9091C199.577 51 199.259 50.2386 198.622 49.625C197.986 49 197.009 48.5341 195.69 48.2273L191.327 47.2045C188.929 46.6364 187.168 45.7557 186.043 44.5625C184.929 43.358 184.372 41.8523 184.372 40.0455C184.372 38.5682 184.787 37.2614 185.616 36.125C186.457 34.9886 187.599 34.0966 189.043 33.4489C190.497 32.8011 192.145 32.4773 193.986 32.4773C196.577 32.4773 198.611 33.0455 200.088 34.1818C201.577 35.3182 202.634 36.8182 203.259 38.6818ZM220.428 59.5455C218.064 59.5455 215.99 58.983 214.206 57.858C212.433 56.733 211.047 55.1591 210.047 53.1364C209.058 51.1136 208.564 48.75 208.564 46.0455C208.564 43.3182 209.058 40.9375 210.047 38.9034C211.047 36.8693 212.433 35.2898 214.206 34.1648C215.99 33.0398 218.064 32.4773 220.428 32.4773C222.791 32.4773 224.859 33.0398 226.632 34.1648C228.416 35.2898 229.803 36.8693 230.791 38.9034C231.791 40.9375 232.291 43.3182 232.291 46.0455C232.291 48.75 231.791 51.1136 230.791 53.1364C229.803 55.1591 228.416 56.733 226.632 57.858C224.859 58.983 222.791 59.5455 220.428 59.5455ZM220.428 55.9318C222.223 55.9318 223.7 55.4716 224.859 54.5511C226.018 53.6307 226.876 52.4205 227.433 50.9205C227.99 49.4205 228.268 47.7955 228.268 46.0455C228.268 44.2955 227.99 42.6648 227.433 41.1534C226.876 39.642 226.018 38.4205 224.859 37.4886C223.7 36.5568 222.223 36.0909 220.428 36.0909C218.632 36.0909 217.155 36.5568 215.996 37.4886C214.837 38.4205 213.979 39.642 213.422 41.1534C212.865 42.6648 212.587 44.2955 212.587 46.0455C212.587 47.7955 212.865 49.4205 213.422 50.9205C213.979 52.4205 214.837 53.6307 215.996 54.5511C217.155 55.4716 218.632 55.9318 220.428 55.9318ZM242.455 43.25V59H238.432V32.8182H242.318V36.9091H242.659C243.273 35.5795 244.205 34.5114 245.455 33.7045C246.705 32.8864 248.318 32.4773 250.295 32.4773C252.068 32.4773 253.619 32.8409 254.949 33.5682C256.278 34.2841 257.313 35.375 258.051 36.8409C258.79 38.2955 259.159 40.1364 259.159 42.3636V59H255.136V42.6364C255.136 40.5795 254.602 38.9773 253.534 37.8295C252.466 36.6705 251 36.0909 249.136 36.0909C247.852 36.0909 246.705 36.3693 245.693 36.9261C244.693 37.483 243.903 38.2955 243.324 39.3636C242.744 40.4318 242.455 41.7273 242.455 43.25ZM281.51 42.1591V45.9091H266.237V42.1591H281.51ZM292.611 24.0909V59H288.588V24.0909H292.611ZM318.524 38.6818L314.911 39.7045C314.683 39.1023 314.348 38.517 313.905 37.9489C313.473 37.3693 312.882 36.892 312.132 36.517C311.382 36.142 310.422 35.9545 309.251 35.9545C307.649 35.9545 306.314 36.3239 305.246 37.0625C304.189 37.7898 303.661 38.7159 303.661 39.8409C303.661 40.8409 304.024 41.6307 304.751 42.2102C305.479 42.7898 306.615 43.2727 308.161 43.6591L312.047 44.6136C314.388 45.1818 316.132 46.0511 317.28 47.2216C318.428 48.3807 319.001 49.875 319.001 51.7045C319.001 53.2045 318.57 54.5455 317.706 55.7273C316.854 56.9091 315.661 57.8409 314.126 58.5227C312.592 59.2045 310.808 59.5455 308.774 59.5455C306.104 59.5455 303.893 58.9659 302.143 57.8068C300.393 56.6477 299.286 54.9545 298.82 52.7273L302.638 51.7727C303.001 53.1818 303.689 54.2386 304.7 54.9432C305.723 55.6477 307.058 56 308.706 56C310.581 56 312.07 55.6023 313.172 54.8068C314.286 54 314.842 53.0341 314.842 51.9091C314.842 51 314.524 50.2386 313.888 49.625C313.251 49 312.274 48.5341 310.956 48.2273L306.592 47.2045C304.195 46.6364 302.433 45.7557 301.308 44.5625C300.195 43.358 299.638 41.8523 299.638 40.0455C299.638 38.5682 300.053 37.2614 300.882 36.125C301.723 34.9886 302.865 34.0966 304.308 33.4489C305.763 32.8011 307.411 32.4773 309.251 32.4773C311.842 32.4773 313.876 33.0455 315.354 34.1818C316.842 35.3182 317.899 36.8182 318.524 38.6818Z" fill="#D0D0D0"/>
</svg>
