<svg width="351" height="72" viewBox="0 0 351 72" fill="none" xmlns="http://www.w3.org/2000/svg">
<path d="M15 35.5V49C15 57.2843 21.7157 64 30 64H47H64C72.2843 64 79 57.2843 79 49V35.5V22C79 13.7157 72.2843 7 64 7H47H30C21.7157 7 15 13.7157 15 22V35.5ZM50.7405 27.3962C52.748 31.1476 54.6354 34.6987 54.9442 35.2633V35.2633C55.2004 35.7411 54.8542 36.3195 54.312 36.3195H53.4V36.3195C52.1013 36.3195 50.9088 35.6025 50.2997 34.4556L49.1619 32.3131C47.978 30.1096 46.9314 28.3249 46.8456 28.3613C46.7426 28.3978 45.696 30.2006 44.5121 32.3677L43.3849 34.4612C42.7687 35.6058 41.5738 36.3195 40.274 36.3195V36.3195C39.1072 36.3195 38.1635 36.2831 38.1635 36.2284C38.1635 35.9553 46.8284 20.476 46.9485 20.5125C47.0343 20.5489 48.733 23.6447 50.7405 27.3962ZM51.7013 40.6901H55.7503C57.0208 40.6901 58.1909 41.3807 58.8048 42.493V42.493C59.3367 43.4764 59.7828 44.3505 59.7828 44.4415C59.7828 44.5872 33.874 44.569 33.7367 44.4233C33.7024 44.3869 34.1657 43.4764 34.7662 42.4019V42.4019C35.4309 41.2037 36.705 40.4726 38.0749 40.5033L40.7201 40.5626C43.3968 40.6355 48.3383 40.6901 51.7013 40.6901ZM36.6708 47.9198C36.1903 48.1201 36.482 48.3387 37.2198 48.3387H37.3473C37.5925 48.3387 37.7239 48.6271 37.563 48.8121V48.8121C37.3228 49.0853 37.134 49.4313 37.1512 49.5952C37.1512 49.7773 37.1855 49.8137 37.2542 49.6498C37.3399 49.3949 37.6488 49.3403 37.6488 49.577C37.6488 49.6681 37.4601 49.8319 37.237 49.9412C36.8595 50.1233 36.4992 51.0703 36.808 51.0703C36.8938 51.0703 37.1855 50.8153 37.4772 50.524C37.7689 50.2144 38.1464 49.9776 38.3008 49.9776C38.4724 49.9776 38.6783 49.7591 38.7984 49.4313C38.9357 49.0307 39.1072 48.885 39.4161 48.885C40.1882 48.885 40.4113 49.0489 40.1882 49.4859V49.4859C40.1192 49.6258 39.9152 49.6113 39.8667 49.4631L39.8622 49.4495C39.6391 48.8486 39.4161 49.0307 38.9357 50.1415C38.6611 50.7607 38.5925 51.0339 38.7469 50.9064C38.8842 50.7789 39.0729 50.7243 39.1759 50.7789C39.2617 50.8335 39.3646 50.7607 39.4332 50.615C39.4847 50.4693 39.4504 50.3419 39.3475 50.3419C39.2445 50.3419 39.2273 50.2508 39.2788 50.1597C39.4504 49.8502 40.1024 49.9412 39.9823 50.2508C39.9308 50.3965 39.8279 50.6332 39.7764 50.7789C39.7249 50.9428 39.8107 51.0157 40.0681 50.9974C40.3598 50.9792 40.5142 50.7789 40.7201 50.1415C41.0461 49.1399 41.355 48.7029 41.7496 48.7029C41.9727 48.7029 41.9898 48.7393 41.7839 48.8668C41.6466 48.9578 41.3721 49.5224 41.1662 50.1051C40.8059 51.1431 40.7716 51.1613 40.1196 51.1978C39.9441 51.1978 39.7605 51.1848 39.6045 51.161C39.3551 51.123 39.0552 50.8482 38.9357 51.0703V51.0703C38.7984 51.307 37.7003 51.307 37.563 51.0703C37.4944 50.9428 37.3228 50.9792 37.0826 51.1613C36.3791 51.6895 35.9673 51.307 36.2761 50.4329C36.4477 49.9412 36.3962 49.9048 35.5555 49.9594C35.281 49.9594 35.0751 49.9048 35.0751 49.7955C35.0751 49.7045 35.2638 49.6134 35.504 49.6134C35.7271 49.6134 35.9845 49.5042 36.0531 49.3767C36.1217 49.2492 36.3791 48.9942 36.6193 48.8121V48.8121C36.7349 48.7238 36.6577 48.5396 36.5137 48.56L36.2761 48.5936C34.7834 48.8121 34.6461 48.8121 34.6461 48.5208C34.6461 48.3387 34.8863 48.2112 35.3668 48.1383C35.7786 48.0837 36.156 47.9927 36.2075 47.9198C36.2761 47.847 36.4477 47.7923 36.6021 47.8105C36.7737 47.8105 36.808 47.847 36.6708 47.9198ZM53.0912 48.4661C53.0912 48.6665 52.9539 48.7211 52.5764 48.6665C52.1303 48.5936 52.0445 48.6482 51.9759 49.0125C51.9244 49.2492 51.8558 49.6316 51.8043 49.8684C51.7528 50.1051 51.6842 50.4329 51.6327 50.5604C51.4783 50.9792 52.2676 51.2706 52.9024 51.0157C53.4172 50.8153 53.7775 50.3419 53.4172 50.3419C53.3142 50.3419 53.2971 50.2508 53.3485 50.1597C53.5201 49.8502 54.1721 49.9412 54.052 50.2508C54.0005 50.3965 53.8976 50.6514 53.829 50.8335C53.7432 51.0521 53.7775 51.0885 53.9491 50.9792C54.1035 50.87 54.1378 50.9064 54.0349 51.0521C53.9662 51.1796 53.7775 51.2524 53.6059 51.1978C53.4172 51.1431 53.1255 51.2342 52.9196 51.3799C52.645 51.5802 52.4391 51.5984 52.0788 51.4709C51.8043 51.3617 51.2552 51.3252 50.8777 51.3799C50.0542 51.5073 49.934 51.216 50.6375 50.8518C51.1694 50.5604 51.8558 48.7211 51.4954 48.4843C51.3672 48.3993 51.2277 48.3539 51.1049 48.3502C50.8602 48.3428 50.8357 48.6388 51.0665 48.5572V48.5572C51.3067 48.5026 51.3925 48.5208 51.3067 48.6665C51.1351 48.9578 50.5174 48.9396 50.5174 48.6482C50.5174 48.2294 50.689 48.1748 51.9072 48.193C52.8338 48.193 53.0912 48.2658 53.0912 48.4661ZM48.9046 49.0125C48.8359 49.0853 48.6643 49.1581 48.5271 49.1581C48.3898 49.1581 48.0981 49.5952 47.8579 50.1051L47.6441 50.6063C47.5876 50.7387 47.7404 50.8621 47.8579 50.7789V50.7789C48.081 50.6332 48.304 50.3783 48.3555 50.2326C48.407 50.0869 48.6472 49.9776 48.8874 49.9776C49.1962 49.9776 49.3164 50.0687 49.3164 50.3419C49.3164 50.615 49.1962 50.7061 48.8702 50.7061C48.63 50.7061 48.4756 50.7789 48.5442 50.8882C48.5957 50.9792 48.7501 51.0157 48.8874 50.9428C49.0247 50.8882 49.1448 50.9428 49.1448 51.0521C49.1448 51.307 48.407 51.307 48.1668 51.0521C48.0295 50.9064 47.9437 50.9064 47.8751 51.0521C47.7206 51.2888 46.6225 51.3252 46.4853 51.0885C46.3137 50.7607 46.7769 49.9776 47.1544 49.9776C47.4118 49.9776 47.5834 49.7955 47.7206 49.4313C47.8751 48.976 48.0123 48.885 48.4756 48.885C48.7845 48.885 48.9732 48.9396 48.9046 49.0125ZM54.2922 49.4313C54.1893 49.6316 54.0692 49.7955 54.0349 49.7955C53.9834 49.7955 53.9491 49.6316 53.9491 49.4313C53.9491 49.231 54.0692 49.0671 54.2064 49.0671C54.4295 49.0671 54.4466 49.1399 54.2922 49.4313ZM34.9035 50.1597C34.9035 50.3601 34.8349 50.524 34.7319 50.524C34.6461 50.524 34.5603 50.4329 34.5603 50.3054C34.5603 50.1415 34.5088 50.1415 34.3716 50.2872C34.2686 50.3965 34.2172 50.615 34.2515 50.7971C34.2858 51.0521 34.4059 51.0157 35.0408 50.5422C35.8643 49.8866 36.0188 50.0687 35.2295 50.7789C34.6804 51.2888 34.4402 51.3435 34.0627 51.0885C33.874 50.961 33.874 50.8518 34.0456 50.5058C34.4231 49.7591 34.9035 49.5588 34.9035 50.1597ZM42.6247 49.9958C42.6247 50.0869 42.5389 50.1233 42.4359 50.0505C42.2987 49.9776 42.2815 50.0687 42.3673 50.3236C42.5217 50.8335 42.1957 51.2524 41.6638 51.2524C41.3721 51.2524 41.252 51.1431 41.252 50.8882C41.252 50.6879 41.3721 50.524 41.5094 50.524C41.8011 50.524 41.8525 50.8153 41.5952 50.9428V50.9428C41.4817 51.003 41.7066 50.9824 41.7668 50.8689C41.8067 50.7935 41.8275 50.6951 41.8182 50.5968C41.8011 50.4147 41.8182 50.1415 41.8525 50.0141C41.9383 49.7409 42.6247 49.7227 42.6247 49.9958ZM45.6445 50.2326C45.593 50.4329 45.5416 50.7607 45.5416 50.9246C45.5416 51.1067 45.4214 51.2524 45.267 51.2524C45.044 51.2524 45.0097 51.1249 45.0954 50.7061C45.1469 50.3965 45.1469 50.1597 45.1126 50.1597C45.0783 50.1597 44.9239 50.3965 44.7694 50.7061C44.615 50.9974 44.3748 51.2524 44.2032 51.2524C44.0316 51.2524 43.9802 51.1978 44.1003 51.1067C44.2032 51.0339 44.3233 50.7971 44.3748 50.5604C44.4606 50.269 44.4091 50.1597 44.2032 50.1597V50.1597C43.9565 50.1597 44.2476 49.9396 44.4908 49.8985C44.6616 49.8696 44.866 49.8502 45.0611 49.8502C45.6617 49.8502 45.7303 49.8866 45.6445 50.2326ZM43.8086 50.2326C44.0831 50.5968 43.7571 51.2524 43.311 51.2524C42.8649 51.2524 42.5389 50.5968 42.8134 50.2326C42.9164 50.0869 43.1394 49.9776 43.311 49.9776C43.4826 49.9776 43.7056 50.0869 43.8086 50.2326ZM56.437 50.5968C56.4198 50.9246 56.2997 51.1613 56.1625 51.1613C56.008 51.1613 55.9394 50.9974 55.9737 50.7061C56.0252 50.269 56.008 50.269 55.7507 50.5968C55.6134 50.7971 55.4933 51.0157 55.4933 51.1067C55.4933 51.1796 55.4075 51.2524 55.3217 51.2524C55.2188 51.2524 55.1844 51.0339 55.2359 50.7425C55.3389 50.269 55.3389 50.269 55.0815 50.5968C54.9271 50.7971 54.807 51.0157 54.807 51.1067C54.807 51.1796 54.6869 51.2524 54.5496 51.2524C54.3265 51.2524 54.3265 51.1978 54.4981 50.8882C54.6869 50.5786 54.6697 50.4875 54.481 50.3601C54.1721 50.1597 54.5496 50.0505 55.682 50.0323C56.4713 50.0141 56.4713 50.0141 56.437 50.5968ZM58.17 50.3783C58.0327 50.615 57.9298 50.87 57.9469 50.9792C57.9641 51.0703 57.7239 51.1796 57.4322 51.216C56.9689 51.2706 56.866 51.216 56.866 50.9064C56.866 50.3965 57.3292 49.9776 57.9126 49.9776C58.393 49.9776 58.4102 49.9958 58.17 50.3783Z" fill="#807F7D"/>
<path d="M330.166 36.7587L326.552 37.7814C326.325 37.1792 325.989 36.5939 325.546 36.0258C325.114 35.4462 324.524 34.9689 323.774 34.5939C323.024 34.2189 322.063 34.0314 320.893 34.0314C319.291 34.0314 317.955 34.4008 316.887 35.1394C315.83 35.8667 315.302 36.7928 315.302 37.9178C315.302 38.9178 315.666 39.7076 316.393 40.2871C317.12 40.8667 318.257 41.3496 319.802 41.736L323.688 42.6905C326.029 43.2587 327.774 44.128 328.921 45.2985C330.069 46.4576 330.643 47.9519 330.643 49.7814C330.643 51.2814 330.211 52.6224 329.347 53.8042C328.495 54.986 327.302 55.9178 325.768 56.5996C324.234 57.2814 322.45 57.6224 320.416 57.6224C317.745 57.6224 315.535 57.0428 313.785 55.8837C312.035 54.7246 310.927 53.0314 310.461 50.8042L314.279 49.8496C314.643 51.2587 315.33 52.3155 316.342 53.0201C317.364 53.7246 318.7 54.0769 320.347 54.0769C322.222 54.0769 323.711 53.6792 324.813 52.8837C325.927 52.0769 326.484 51.111 326.484 49.986C326.484 49.0769 326.166 48.3155 325.529 47.7019C324.893 47.0769 323.916 46.611 322.597 46.3042L318.234 45.2814C315.836 44.7133 314.075 43.8326 312.95 42.6394C311.836 41.4349 311.279 39.9292 311.279 38.1224C311.279 36.6451 311.694 35.3383 312.524 34.2019C313.364 33.0655 314.507 32.1735 315.95 31.5258C317.404 30.878 319.052 30.5542 320.893 30.5542C323.484 30.5542 325.518 31.1224 326.995 32.2587C328.484 33.3951 329.541 34.8951 330.166 36.7587Z" fill="#FCEF7F"/>
<path d="M302.842 21.2448V56.1539H298.819V21.2448H302.842Z" fill="#FCEF7F"/>
<path d="M289.13 40.236V43.986H273.858V40.236H289.13Z" fill="#FCEF7F"/>
<path d="M248.893 41.3269V57.0769H244.87V30.8951H248.757V34.986H249.097C249.711 33.6564 250.643 32.5883 251.893 31.7815C253.143 30.9633 254.757 30.5542 256.734 30.5542C258.507 30.5542 260.058 30.9178 261.387 31.6451C262.717 32.361 263.751 33.4519 264.489 34.9178C265.228 36.3724 265.597 38.2133 265.597 40.4405V57.0769H261.575V40.7133C261.575 38.6564 261.041 37.0542 259.972 35.9064C258.904 34.7474 257.438 34.1678 255.575 34.1678C254.291 34.1678 253.143 34.4462 252.132 35.003C251.132 35.5599 250.342 36.3724 249.762 37.4405C249.183 38.5087 248.893 39.8042 248.893 41.3269Z" fill="#FCEF7F"/>
<path d="M226.246 57.6224C223.883 57.6224 221.809 57.0599 220.025 55.9349C218.252 54.8099 216.866 53.236 215.866 51.2133C214.877 49.1905 214.383 46.8269 214.383 44.1224C214.383 41.3951 214.877 39.0144 215.866 36.9803C216.866 34.9462 218.252 33.3667 220.025 32.2417C221.809 31.1167 223.883 30.5542 226.246 30.5542C228.61 30.5542 230.678 31.1167 232.451 32.2417C234.235 33.3667 235.621 34.9462 236.61 36.9803C237.61 39.0144 238.11 41.3951 238.11 44.1224C238.11 46.8269 237.61 49.1905 236.61 51.2133C235.621 53.236 234.235 54.8099 232.451 55.9349C230.678 57.0599 228.61 57.6224 226.246 57.6224ZM226.246 54.0087C228.042 54.0087 229.519 53.5485 230.678 52.628C231.837 51.7076 232.695 50.4974 233.252 48.9974C233.809 47.4974 234.087 45.8724 234.087 44.1224C234.087 42.3724 233.809 40.7417 233.252 39.2303C232.695 37.7189 231.837 36.4974 230.678 35.5655C229.519 34.6337 228.042 34.1678 226.246 34.1678C224.451 34.1678 222.974 34.6337 221.814 35.5655C220.655 36.4974 219.797 37.7189 219.241 39.2303C218.684 40.7417 218.405 42.3724 218.405 44.1224C218.405 45.8724 218.684 47.4974 219.241 48.9974C219.797 50.4974 220.655 51.7076 221.814 52.628C222.974 53.5485 224.451 54.0087 226.246 54.0087Z" fill="#FCEF7F"/>
<path d="M205.809 36.7587L202.196 37.7814C201.969 37.1792 201.633 36.5939 201.19 36.0258C200.758 35.4462 200.167 34.9689 199.417 34.5939C198.667 34.2189 197.707 34.0314 196.537 34.0314C194.934 34.0314 193.599 34.4008 192.531 35.1394C191.474 35.8667 190.946 36.7928 190.946 37.9178C190.946 38.9178 191.309 39.7076 192.037 40.2871C192.764 40.8667 193.9 41.3496 195.446 41.736L199.332 42.6905C201.673 43.2587 203.417 44.128 204.565 45.2985C205.713 46.4576 206.287 47.9519 206.287 49.7814C206.287 51.2814 205.855 52.6224 204.991 53.8042C204.139 54.986 202.946 55.9178 201.412 56.5996C199.878 57.2814 198.094 57.6224 196.059 57.6224C193.389 57.6224 191.179 57.0428 189.429 55.8837C187.679 54.7246 186.571 53.0314 186.105 50.8042L189.923 49.8496C190.287 51.2587 190.974 52.3155 191.986 53.0201C193.008 53.7246 194.344 54.0769 195.991 54.0769C197.866 54.0769 199.355 53.6792 200.457 52.8837C201.571 52.0769 202.128 51.111 202.128 49.986C202.128 49.0769 201.809 48.3155 201.173 47.7019C200.537 47.0769 199.559 46.611 198.241 46.3042L193.878 45.2814C191.48 44.7133 189.719 43.8326 188.594 42.6394C187.48 41.4349 186.923 39.9292 186.923 38.1224C186.923 36.6451 187.338 35.3383 188.167 34.2019C189.008 33.0655 190.15 32.1735 191.594 31.5258C193.048 30.878 194.696 30.5542 196.537 30.5542C199.128 30.5542 201.162 31.1224 202.639 32.2587C204.128 33.3951 205.184 34.8951 205.809 36.7587Z" fill="#FCEF7F"/>
<path d="M175.742 22.1678V57.0769H171.719V22.1678H175.742Z" fill="#FCEF7F"/>
<path d="M156.175 57.0769V30.8951H160.198V57.0769H156.175ZM158.22 26.5315C157.436 26.5315 156.76 26.2644 156.192 25.7303C155.635 25.1962 155.357 24.5542 155.357 23.8042C155.357 23.0542 155.635 22.4121 156.192 21.878C156.76 21.3439 157.436 21.0769 158.22 21.0769C159.005 21.0769 159.675 21.3439 160.232 21.878C160.8 22.4121 161.084 23.0542 161.084 23.8042C161.084 24.5542 160.8 25.1962 160.232 25.7303C159.675 26.2644 159.005 26.5315 158.22 26.5315Z" fill="#FCEF7F"/>
<path d="M134.972 57.6224C132.79 57.6224 130.864 57.0712 129.194 55.9689C127.523 54.8553 126.217 53.2871 125.273 51.2644C124.33 49.2303 123.859 46.8269 123.859 44.0542C123.859 41.3042 124.33 38.9178 125.273 36.8951C126.217 34.8724 127.529 33.3099 129.211 32.2076C130.893 31.1053 132.836 30.5542 135.04 30.5542C136.745 30.5542 138.092 30.8383 139.08 31.4065C140.08 31.9633 140.842 32.5996 141.364 33.3155C141.898 34.0201 142.313 34.5996 142.609 35.0542H142.95V22.1678H146.972V57.0769H143.086V53.0542H142.609C142.313 53.5314 141.893 54.1337 141.347 54.861C140.802 55.5769 140.023 56.2189 139.012 56.7871C138.001 57.3439 136.654 57.6224 134.972 57.6224ZM135.518 54.0087C137.131 54.0087 138.495 53.5883 139.609 52.7474C140.722 51.8951 141.569 50.7189 142.148 49.2189C142.728 47.7076 143.018 45.9633 143.018 43.986C143.018 42.0314 142.734 40.3212 142.165 38.8553C141.597 37.378 140.756 36.2303 139.643 35.4121C138.529 34.5826 137.154 34.1678 135.518 34.1678C133.813 34.1678 132.393 34.6053 131.256 35.4803C130.131 36.3439 129.285 37.5201 128.717 39.0087C128.16 40.486 127.881 42.1451 127.881 43.986C127.881 45.8496 128.165 47.5428 128.734 49.0655C129.313 50.5769 130.165 51.7814 131.29 52.6792C132.427 53.5655 133.836 54.0087 135.518 54.0087Z" fill="#FCEF7F"/>
<path d="M90.0739 58H84.5341L100.557 14.3636H106.011L122.034 58H116.494L103.455 21.267H103.114L90.0739 58ZM92.1193 40.9545H114.449V45.642H92.1193V40.9545Z" fill="#FCEF7F"/>
</svg>
