<svg width="380" height="90" viewBox="0 0 380 90" fill="none" xmlns="http://www.w3.org/2000/svg">
<rect width="380" height="90" fill="white"/>
<path d="M144.659 63H140.227L153.045 28.0909H157.409L170.227 63H165.795L155.364 33.6136H155.091L144.659 63ZM146.295 49.3636H164.159V53.1136H146.295V49.3636ZM185.006 63.5455C182.824 63.5455 180.898 62.9943 179.227 61.892C177.557 60.7784 176.25 59.2102 175.307 57.1875C174.364 55.1534 173.892 52.75 173.892 49.9773C173.892 47.2273 174.364 44.8409 175.307 42.8182C176.25 40.7955 177.563 39.233 179.244 38.1307C180.926 37.0284 182.869 36.4773 185.074 36.4773C186.778 36.4773 188.125 36.7614 189.114 37.3295C190.114 37.8864 190.875 38.5227 191.398 39.2386C191.932 39.9432 192.347 40.5227 192.642 40.9773H192.983V28.0909H197.006V63H193.119V58.9773H192.642C192.347 59.4545 191.926 60.0568 191.381 60.7841C190.835 61.5 190.057 62.142 189.045 62.7102C188.034 63.267 186.688 63.5455 185.006 63.5455ZM185.551 59.9318C187.165 59.9318 188.528 59.5114 189.642 58.6705C190.756 57.8182 191.602 56.642 192.182 55.142C192.761 53.6307 193.051 51.8864 193.051 49.9091C193.051 47.9545 192.767 46.2443 192.199 44.7784C191.631 43.3011 190.79 42.1534 189.676 41.3352C188.563 40.5057 187.188 40.0909 185.551 40.0909C183.847 40.0909 182.426 40.5284 181.29 41.4034C180.165 42.267 179.318 43.4432 178.75 44.9318C178.193 46.4091 177.915 48.0682 177.915 49.9091C177.915 51.7727 178.199 53.4659 178.767 54.9886C179.347 56.5 180.199 57.7045 181.324 58.6023C182.46 59.4886 183.869 59.9318 185.551 59.9318ZM204.932 63V36.8182H208.955V63H204.932ZM206.977 32.4545C206.193 32.4545 205.517 32.1875 204.949 31.6534C204.392 31.1193 204.114 30.4773 204.114 29.7273C204.114 28.9773 204.392 28.3352 204.949 27.8011C205.517 27.267 206.193 27 206.977 27C207.761 27 208.432 27.267 208.989 27.8011C209.557 28.3352 209.841 28.9773 209.841 29.7273C209.841 30.4773 209.557 31.1193 208.989 31.6534C208.432 32.1875 207.761 32.4545 206.977 32.4545ZM220.345 28.0909V63H216.322V28.0909H220.345ZM246.259 42.6818L242.645 43.7045C242.418 43.1023 242.082 42.517 241.639 41.9489C241.207 41.3693 240.616 40.892 239.866 40.517C239.116 40.142 238.156 39.9545 236.986 39.9545C235.384 39.9545 234.048 40.3239 232.98 41.0625C231.923 41.7898 231.395 42.7159 231.395 43.8409C231.395 44.8409 231.759 45.6307 232.486 46.2102C233.213 46.7898 234.349 47.2727 235.895 47.6591L239.781 48.6136C242.122 49.1818 243.866 50.0511 245.014 51.2216C246.162 52.3807 246.736 53.875 246.736 55.7045C246.736 57.2045 246.304 58.5455 245.44 59.7273C244.588 60.9091 243.395 61.8409 241.861 62.5227C240.327 63.2045 238.543 63.5455 236.509 63.5455C233.838 63.5455 231.628 62.9659 229.878 61.8068C228.128 60.6477 227.02 58.9545 226.554 56.7273L230.372 55.7727C230.736 57.1818 231.423 58.2386 232.435 58.9432C233.457 59.6477 234.793 60 236.44 60C238.315 60 239.804 59.6023 240.906 58.8068C242.02 58 242.577 57.0341 242.577 55.9091C242.577 55 242.259 54.2386 241.622 53.625C240.986 53 240.009 52.5341 238.69 52.2273L234.327 51.2045C231.929 50.6364 230.168 49.7557 229.043 48.5625C227.929 47.358 227.372 45.8523 227.372 44.0455C227.372 42.5682 227.787 41.2614 228.616 40.125C229.457 38.9886 230.599 38.0966 232.043 37.4489C233.497 36.8011 235.145 36.4773 236.986 36.4773C239.577 36.4773 241.611 37.0455 243.088 38.1818C244.577 39.3182 245.634 40.8182 246.259 42.6818ZM263.428 63.5455C261.064 63.5455 258.99 62.983 257.206 61.858C255.433 60.733 254.047 59.1591 253.047 57.1364C252.058 55.1136 251.564 52.75 251.564 50.0455C251.564 47.3182 252.058 44.9375 253.047 42.9034C254.047 40.8693 255.433 39.2898 257.206 38.1648C258.99 37.0398 261.064 36.4773 263.428 36.4773C265.791 36.4773 267.859 37.0398 269.632 38.1648C271.416 39.2898 272.803 40.8693 273.791 42.9034C274.791 44.9375 275.291 47.3182 275.291 50.0455C275.291 52.75 274.791 55.1136 273.791 57.1364C272.803 59.1591 271.416 60.733 269.632 61.858C267.859 62.983 265.791 63.5455 263.428 63.5455ZM263.428 59.9318C265.223 59.9318 266.7 59.4716 267.859 58.5511C269.018 57.6307 269.876 56.4205 270.433 54.9205C270.99 53.4205 271.268 51.7955 271.268 50.0455C271.268 48.2955 270.99 46.6648 270.433 45.1534C269.876 43.642 269.018 42.4205 267.859 41.4886C266.7 40.5568 265.223 40.0909 263.428 40.0909C261.632 40.0909 260.155 40.5568 258.996 41.4886C257.837 42.4205 256.979 43.642 256.422 45.1534C255.865 46.6648 255.587 48.2955 255.587 50.0455C255.587 51.7955 255.865 53.4205 256.422 54.9205C256.979 56.4205 257.837 57.6307 258.996 58.5511C260.155 59.4716 261.632 59.9318 263.428 59.9318ZM285.455 47.25V63H281.432V36.8182H285.318V40.9091H285.659C286.273 39.5795 287.205 38.5114 288.455 37.7045C289.705 36.8864 291.318 36.4773 293.295 36.4773C295.068 36.4773 296.619 36.8409 297.949 37.5682C299.278 38.2841 300.313 39.375 301.051 40.8409C301.79 42.2955 302.159 44.1364 302.159 46.3636V63H298.136V46.6364C298.136 44.5795 297.602 42.9773 296.534 41.8295C295.466 40.6705 294 40.0909 292.136 40.0909C290.852 40.0909 289.705 40.3693 288.693 40.9261C287.693 41.483 286.903 42.2955 286.324 43.3636C285.744 44.4318 285.455 45.7273 285.455 47.25ZM324.51 46.1591V49.9091H309.237V46.1591H324.51ZM335.611 28.0909V63H331.588V28.0909H335.611ZM361.524 42.6818L357.911 43.7045C357.683 43.1023 357.348 42.517 356.905 41.9489C356.473 41.3693 355.882 40.892 355.132 40.517C354.382 40.142 353.422 39.9545 352.251 39.9545C350.649 39.9545 349.314 40.3239 348.246 41.0625C347.189 41.7898 346.661 42.7159 346.661 43.8409C346.661 44.8409 347.024 45.6307 347.751 46.2102C348.479 46.7898 349.615 47.2727 351.161 47.6591L355.047 48.6136C357.388 49.1818 359.132 50.0511 360.28 51.2216C361.428 52.3807 362.001 53.875 362.001 55.7045C362.001 57.2045 361.57 58.5455 360.706 59.7273C359.854 60.9091 358.661 61.8409 357.126 62.5227C355.592 63.2045 353.808 63.5455 351.774 63.5455C349.104 63.5455 346.893 62.9659 345.143 61.8068C343.393 60.6477 342.286 58.9545 341.82 56.7273L345.638 55.7727C346.001 57.1818 346.689 58.2386 347.7 58.9432C348.723 59.6477 350.058 60 351.706 60C353.581 60 355.07 59.6023 356.172 58.8068C357.286 58 357.842 57.0341 357.842 55.9091C357.842 55 357.524 54.2386 356.888 53.625C356.251 53 355.274 52.5341 353.956 52.2273L349.592 51.2045C347.195 50.6364 345.433 49.7557 344.308 48.5625C343.195 47.358 342.638 45.8523 342.638 44.0455C342.638 42.5682 343.053 41.2614 343.882 40.125C344.723 38.9886 345.865 38.0966 347.308 37.4489C348.763 36.8011 350.411 36.4773 352.251 36.4773C354.842 36.4773 356.876 37.0455 358.354 38.1818C359.842 39.3182 360.899 40.8182 361.524 42.6818Z" fill="#D0D0D0"/>
<path d="M77.8924 42.4319V37.5893C79.6048 37.0825 80.8025 35.6104 80.606 33.9372C80.4188 32.3203 78.9124 31.001 77.0316 30.8241C74.5894 30.5908 72.5122 32.2399 72.5122 34.2911C72.5122 35.8195 73.6537 37.1147 75.2444 37.5893V42.4319C75.2444 42.8824 74.814 43.2524 74.29 43.2524H61.9201C61.3961 43.2524 60.9657 43.6224 60.9657 44.0729C60.9657 44.5234 61.3961 44.8934 61.9201 44.8934H64.7366C65.2606 44.8934 65.691 45.2635 65.691 45.7139V50.2428C63.8477 50.7175 62.5564 52.2861 62.8371 54.0719C63.0804 55.6405 64.5681 56.8793 66.3928 57.0563C68.8349 57.2896 70.9122 55.6405 70.9122 53.5893C70.9122 52.1172 69.8455 50.8542 68.339 50.3394V45.7139C68.339 45.2635 68.7694 44.8934 69.2934 44.8934H80.2223V68.8652C80.2223 70.82 77.7614 72.0347 75.7965 71.0613L50.7011 58.6088C49.7842 58.1584 49.2228 57.3218 49.2228 56.4128V25.7964C49.2228 24.8874 49.7842 24.0508 50.7011 23.6003L68.1706 14.9287C69.3776 15.709 70.8934 16.1514 72.5403 16.079C75.8713 15.9342 78.6036 13.6416 78.8562 10.7859C79.1556 7.41535 76.0491 4.59183 72.1941 4.59183C68.5074 4.59183 65.5038 7.17403 65.5038 10.3435C65.5038 10.4722 65.5132 10.5928 65.5226 10.7215L45.1338 20.8412C44.2168 21.2917 43.6554 22.1283 43.6554 23.0373V59.18C43.6554 60.089 44.2168 60.9256 45.1338 61.3761L81.3732 79.363C83.3382 80.3363 85.7991 79.1216 85.7991 77.1669V43.2524H78.8469C78.3229 43.2524 77.8924 42.8824 77.8924 42.4319ZM69.4805 53.5812C69.4805 54.9085 68.1331 55.9784 66.5518 55.8255C65.3541 55.7129 64.381 54.8763 64.2407 53.8467C64.1097 52.8492 64.7366 51.9643 65.6816 51.5621C66.0372 51.4093 66.4302 51.3288 66.8512 51.3288C67.4033 51.3288 67.9179 51.4736 68.339 51.723C69.0314 52.1332 69.4805 52.809 69.4805 53.5812ZM75.2444 36.2378C74.421 35.8276 73.8877 35.0392 73.9438 34.1544C74.0187 33.0121 75.1134 32.087 76.4421 32.0307C77.9486 31.9664 79.1931 33.0041 79.1931 34.2831C79.1931 35.1116 78.6691 35.8356 77.8924 36.2298C77.4995 36.4229 77.0503 36.5355 76.5638 36.5355C76.0866 36.5435 75.6281 36.4309 75.2444 36.2378ZM72.1847 6.77986C74.5333 6.77986 76.4328 8.47719 76.3205 10.5204C76.2269 12.2178 74.7017 13.6496 72.7368 13.8668C72.0256 13.9473 71.3332 13.8668 70.725 13.6657C69.1624 13.1589 68.0489 11.8558 68.0489 10.3354C68.0489 10.0056 68.1051 9.68383 68.1986 9.37815C68.6852 7.88192 70.2852 6.77986 72.1847 6.77986Z" fill="#A6A9C4"/>
<path d="M126.502 25.8688L90.2623 7.88191C88.2974 6.90856 85.8365 8.12324 85.8365 10.078L85.8271 44.0729H91.3665H95.1373C95.6613 44.0729 96.0917 44.4429 96.0917 44.8934V49.4223C94.2484 49.8969 92.9571 51.4656 93.2379 53.2514C93.4811 54.82 94.9689 56.0588 96.7935 56.2358C99.2357 56.4691 101.313 54.82 101.313 52.7687C101.313 51.2966 100.246 50.0337 98.7397 49.5189V44.8934C98.7397 44.4429 99.1702 44.0729 99.6941 44.0729H109.678C110.202 44.0729 110.632 43.7029 110.632 43.2524C110.632 42.8019 110.202 42.4319 109.678 42.4319H109.257C108.733 42.4319 108.303 42.0619 108.303 41.6114V36.7687C110.015 36.262 111.213 34.7899 111.016 33.1167C110.829 31.4998 109.322 30.1805 107.442 30.0035C105 29.7703 102.922 31.4193 102.922 33.4706C102.922 34.999 104.064 36.2941 105.655 36.7687V41.6114C105.655 42.0619 105.224 42.4319 104.7 42.4319H91.4132V18.3796C91.4132 16.4249 93.8741 15.2102 95.8391 16.1836L120.934 28.6441C121.851 29.0945 122.413 29.9312 122.413 30.8401V61.4565C122.413 62.3655 121.851 63.2021 120.934 63.6526L103.465 72.3162C102.192 71.4957 100.574 71.0533 98.8333 71.182C95.6052 71.4313 93.0226 73.6918 92.7794 76.4751C92.4893 79.8376 95.5958 82.6531 99.4509 82.6531C103.138 82.6531 106.141 80.0709 106.141 76.9014C106.141 76.7727 106.132 76.6521 106.122 76.5233L126.511 66.4037C127.428 65.9532 127.99 65.1166 127.99 64.2076V28.0649C127.98 27.1639 127.419 26.3273 126.502 25.8688ZM104.345 33.4706C104.345 32.1916 105.589 31.1539 107.095 31.2182C108.424 31.2745 109.51 32.1996 109.594 33.3419C109.65 34.2268 109.117 35.0071 108.293 35.4254C107.9 35.6184 107.451 35.731 106.964 35.731C106.478 35.731 106.029 35.6184 105.636 35.4254C104.869 35.0232 104.345 34.2992 104.345 33.4706ZM99.8906 52.7607C99.8906 54.088 98.5432 55.1579 96.9619 55.005C95.7642 54.8924 94.7911 54.0558 94.6508 53.0261C94.5198 52.0287 95.1467 51.1438 96.0917 50.7416C96.4473 50.5887 96.8403 50.5083 97.2613 50.5083C97.8134 50.5083 98.328 50.6531 98.7491 50.9025C99.4322 51.3127 99.8906 51.9884 99.8906 52.7607ZM103.437 77.8587C102.904 79.4997 101.032 80.6661 98.8988 80.4328C97.0274 80.2237 95.5397 78.9205 95.3338 77.3117C95.0531 75.1639 97.0087 73.3459 99.4415 73.3459C99.9561 73.3459 100.452 73.4263 100.911 73.5792C102.473 74.0859 103.587 75.3891 103.587 76.9095C103.587 77.2393 103.53 77.553 103.437 77.8587Z" fill="#BA8A0F"/>
</svg>
